<mxfile host="Electron" agent="Mozilla/5.0 (X11; Linux x86_64) AppleWebKit/537.36 (KHTML, like Gecko) draw.io/26.0.4 Chrome/128.0.6613.186 Electron/32.2.5 Safari/537.36" version="26.0.4">
  <diagram name="Page-1" id="HHABXlN4WHRFsMY-K2RZ">
    <mxGraphModel dx="1114" dy="1198" grid="1" gridSize="10" guides="1" tooltips="1" connect="1" arrows="1" fold="1" page="1" pageScale="1" pageWidth="850" pageHeight="1100" math="0" shadow="0">
      <root>
        <mxCell id="0" />
        <mxCell id="1" parent="0" />
        <mxCell id="KegEBsuILMjrFgMIoxQn-1" value="VPC" style="points=[[0,0],[0.25,0],[0.5,0],[0.75,0],[1,0],[1,0.25],[1,0.5],[1,0.75],[1,1],[0.75,1],[0.5,1],[0.25,1],[0,1],[0,0.75],[0,0.5],[0,0.25]];outlineConnect=0;gradientColor=none;html=1;whiteSpace=wrap;fontSize=12;fontStyle=0;container=1;pointerEvents=0;collapsible=0;recursiveResize=0;shape=mxgraph.aws4.group;grIcon=mxgraph.aws4.group_vpc2;strokeColor=#8C4FFF;fillColor=none;verticalAlign=top;align=left;spacingLeft=30;fontColor=#AAB7B8;dashed=0;" vertex="1" parent="1">
          <mxGeometry x="100" y="400" width="290" height="340" as="geometry" />
        </mxCell>
        <mxCell id="KegEBsuILMjrFgMIoxQn-3" value="Public subnet" style="points=[[0,0],[0.25,0],[0.5,0],[0.75,0],[1,0],[1,0.25],[1,0.5],[1,0.75],[1,1],[0.75,1],[0.5,1],[0.25,1],[0,1],[0,0.75],[0,0.5],[0,0.25]];outlineConnect=0;gradientColor=none;html=1;whiteSpace=wrap;fontSize=12;fontStyle=0;container=1;pointerEvents=0;collapsible=0;recursiveResize=0;shape=mxgraph.aws4.group;grIcon=mxgraph.aws4.group_security_group;grStroke=0;strokeColor=#7AA116;fillColor=#F2F6E8;verticalAlign=top;align=left;spacingLeft=30;fontColor=#248814;dashed=0;" vertex="1" parent="KegEBsuILMjrFgMIoxQn-1">
          <mxGeometry x="10" y="30" width="270" height="130" as="geometry" />
        </mxCell>
        <mxCell id="KegEBsuILMjrFgMIoxQn-12" value="Security group (BastionHost-SG)" style="fillColor=none;strokeColor=#DD3522;verticalAlign=top;fontStyle=0;fontColor=#DD3522;whiteSpace=wrap;html=1;labelPosition=center;verticalLabelPosition=middle;align=left;" vertex="1" parent="KegEBsuILMjrFgMIoxQn-3">
          <mxGeometry x="20" y="31" width="230" height="86" as="geometry" />
        </mxCell>
        <mxCell id="KegEBsuILMjrFgMIoxQn-8" value="EC2 Instance&lt;div&gt;(Bastion Host)&lt;/div&gt;" style="sketch=0;outlineConnect=0;fontColor=#232F3E;gradientColor=none;fillColor=#ED7100;strokeColor=none;dashed=0;verticalLabelPosition=middle;verticalAlign=middle;align=left;html=1;fontSize=12;fontStyle=0;aspect=fixed;pointerEvents=1;shape=mxgraph.aws4.instance2;labelPosition=right;spacingRight=0;spacingLeft=5;spacingBottom=0;" vertex="1" parent="KegEBsuILMjrFgMIoxQn-3">
          <mxGeometry x="111" y="60" width="48" height="48" as="geometry" />
        </mxCell>
        <mxCell id="KegEBsuILMjrFgMIoxQn-2" value="Private subnet" style="points=[[0,0],[0.25,0],[0.5,0],[0.75,0],[1,0],[1,0.25],[1,0.5],[1,0.75],[1,1],[0.75,1],[0.5,1],[0.25,1],[0,1],[0,0.75],[0,0.5],[0,0.25]];outlineConnect=0;gradientColor=none;html=1;whiteSpace=wrap;fontSize=12;fontStyle=0;container=1;pointerEvents=0;collapsible=0;recursiveResize=0;shape=mxgraph.aws4.group;grIcon=mxgraph.aws4.group_security_group;grStroke=0;strokeColor=#00A4A6;fillColor=#E6F6F7;verticalAlign=top;align=left;spacingLeft=30;fontColor=#147EBA;dashed=0;" vertex="1" parent="KegEBsuILMjrFgMIoxQn-1">
          <mxGeometry x="10" y="180" width="270" height="150" as="geometry" />
        </mxCell>
        <mxCell id="KegEBsuILMjrFgMIoxQn-5" value="Security group (LinuxInstance-SG)" style="fillColor=none;strokeColor=#DD3522;verticalAlign=bottom;fontStyle=0;fontColor=#DD3522;whiteSpace=wrap;html=1;" vertex="1" parent="KegEBsuILMjrFgMIoxQn-2">
          <mxGeometry x="20" y="30" width="230" height="110" as="geometry" />
        </mxCell>
        <mxCell id="KegEBsuILMjrFgMIoxQn-4" value="" style="sketch=0;outlineConnect=0;fontColor=#232F3E;gradientColor=none;fillColor=#ED7100;strokeColor=none;dashed=0;verticalLabelPosition=bottom;verticalAlign=top;align=center;html=1;fontSize=12;fontStyle=0;aspect=fixed;pointerEvents=1;shape=mxgraph.aws4.instance2;" vertex="1" parent="KegEBsuILMjrFgMIoxQn-2">
          <mxGeometry x="31" y="61" width="48" height="48" as="geometry" />
        </mxCell>
        <mxCell id="KegEBsuILMjrFgMIoxQn-6" value="" style="sketch=0;outlineConnect=0;fontColor=#232F3E;gradientColor=none;fillColor=#ED7100;strokeColor=none;dashed=0;verticalLabelPosition=bottom;verticalAlign=top;align=center;html=1;fontSize=12;fontStyle=0;aspect=fixed;pointerEvents=1;shape=mxgraph.aws4.instance2;" vertex="1" parent="KegEBsuILMjrFgMIoxQn-2">
          <mxGeometry x="111" y="61" width="48" height="48" as="geometry" />
        </mxCell>
        <mxCell id="KegEBsuILMjrFgMIoxQn-7" value="" style="sketch=0;outlineConnect=0;fontColor=#232F3E;gradientColor=none;fillColor=#ED7100;strokeColor=none;dashed=0;verticalLabelPosition=bottom;verticalAlign=top;align=center;html=1;fontSize=12;fontStyle=0;aspect=fixed;pointerEvents=1;shape=mxgraph.aws4.instance2;" vertex="1" parent="KegEBsuILMjrFgMIoxQn-2">
          <mxGeometry x="191" y="61" width="48" height="48" as="geometry" />
        </mxCell>
        <mxCell id="KegEBsuILMjrFgMIoxQn-9" style="edgeStyle=orthogonalEdgeStyle;rounded=0;orthogonalLoop=1;jettySize=auto;html=1;" edge="1" parent="KegEBsuILMjrFgMIoxQn-1" source="KegEBsuILMjrFgMIoxQn-8" target="KegEBsuILMjrFgMIoxQn-6">
          <mxGeometry relative="1" as="geometry" />
        </mxCell>
        <mxCell id="KegEBsuILMjrFgMIoxQn-10" style="edgeStyle=orthogonalEdgeStyle;rounded=0;orthogonalLoop=1;jettySize=auto;html=1;" edge="1" parent="KegEBsuILMjrFgMIoxQn-1" source="KegEBsuILMjrFgMIoxQn-8" target="KegEBsuILMjrFgMIoxQn-7">
          <mxGeometry relative="1" as="geometry">
            <Array as="points">
              <mxPoint x="145" y="220" />
              <mxPoint x="225" y="220" />
            </Array>
          </mxGeometry>
        </mxCell>
        <mxCell id="KegEBsuILMjrFgMIoxQn-11" style="edgeStyle=orthogonalEdgeStyle;rounded=0;orthogonalLoop=1;jettySize=auto;html=1;" edge="1" parent="KegEBsuILMjrFgMIoxQn-1" source="KegEBsuILMjrFgMIoxQn-8" target="KegEBsuILMjrFgMIoxQn-4">
          <mxGeometry relative="1" as="geometry">
            <Array as="points">
              <mxPoint x="145" y="220" />
              <mxPoint x="65" y="220" />
            </Array>
          </mxGeometry>
        </mxCell>
        <mxCell id="KegEBsuILMjrFgMIoxQn-14" value="SSH / 22" style="edgeStyle=orthogonalEdgeStyle;rounded=0;orthogonalLoop=1;jettySize=auto;html=1;" edge="1" parent="1" source="KegEBsuILMjrFgMIoxQn-13" target="KegEBsuILMjrFgMIoxQn-8">
          <mxGeometry x="-0.3542" relative="1" as="geometry">
            <mxPoint as="offset" />
          </mxGeometry>
        </mxCell>
        <mxCell id="KegEBsuILMjrFgMIoxQn-13" value="Users" style="sketch=0;outlineConnect=0;fontColor=#232F3E;gradientColor=none;fillColor=#232F3D;strokeColor=none;dashed=0;verticalLabelPosition=bottom;verticalAlign=top;align=center;html=1;fontSize=12;fontStyle=0;aspect=fixed;pointerEvents=1;shape=mxgraph.aws4.users;" vertex="1" parent="1">
          <mxGeometry x="206" y="220" width="78" height="78" as="geometry" />
        </mxCell>
        <mxCell id="KegEBsuILMjrFgMIoxQn-15" value="VPC" style="points=[[0,0],[0.25,0],[0.5,0],[0.75,0],[1,0],[1,0.25],[1,0.5],[1,0.75],[1,1],[0.75,1],[0.5,1],[0.25,1],[0,1],[0,0.75],[0,0.5],[0,0.25]];outlineConnect=0;gradientColor=none;html=1;whiteSpace=wrap;fontSize=12;fontStyle=0;container=1;pointerEvents=0;collapsible=0;recursiveResize=0;shape=mxgraph.aws4.group;grIcon=mxgraph.aws4.group_vpc2;strokeColor=#8C4FFF;fillColor=none;verticalAlign=top;align=left;spacingLeft=30;fontColor=#AAB7B8;dashed=0;" vertex="1" parent="1">
          <mxGeometry x="460" y="360" width="290" height="550" as="geometry" />
        </mxCell>
        <mxCell id="KegEBsuILMjrFgMIoxQn-16" value="Public subnet" style="points=[[0,0],[0.25,0],[0.5,0],[0.75,0],[1,0],[1,0.25],[1,0.5],[1,0.75],[1,1],[0.75,1],[0.5,1],[0.25,1],[0,1],[0,0.75],[0,0.5],[0,0.25]];outlineConnect=0;gradientColor=none;html=1;whiteSpace=wrap;fontSize=12;fontStyle=0;container=1;pointerEvents=0;collapsible=0;recursiveResize=0;shape=mxgraph.aws4.group;grIcon=mxgraph.aws4.group_security_group;grStroke=0;strokeColor=#7AA116;fillColor=#F2F6E8;verticalAlign=top;align=left;spacingLeft=30;fontColor=#248814;dashed=0;" vertex="1" parent="KegEBsuILMjrFgMIoxQn-15">
          <mxGeometry x="10" y="40" width="270" height="330" as="geometry" />
        </mxCell>
        <mxCell id="KegEBsuILMjrFgMIoxQn-34" style="edgeStyle=orthogonalEdgeStyle;rounded=0;orthogonalLoop=1;jettySize=auto;html=1;" edge="1" parent="KegEBsuILMjrFgMIoxQn-16" source="KegEBsuILMjrFgMIoxQn-30" target="KegEBsuILMjrFgMIoxQn-29">
          <mxGeometry relative="1" as="geometry" />
        </mxCell>
        <mxCell id="KegEBsuILMjrFgMIoxQn-30" value="Network Load&lt;div&gt;Balancer&lt;/div&gt;" style="sketch=0;outlineConnect=0;fontColor=#232F3E;gradientColor=none;fillColor=#8C4FFF;strokeColor=none;dashed=0;verticalLabelPosition=middle;verticalAlign=middle;align=right;html=1;fontSize=12;fontStyle=0;aspect=fixed;pointerEvents=1;shape=mxgraph.aws4.network_load_balancer;labelPosition=left;spacingRight=5;" vertex="1" parent="KegEBsuILMjrFgMIoxQn-16">
          <mxGeometry x="96" y="30" width="78" height="78" as="geometry" />
        </mxCell>
        <mxCell id="KegEBsuILMjrFgMIoxQn-29" value="Auto Scaling group" style="points=[[0,0],[0.25,0],[0.5,0],[0.75,0],[1,0],[1,0.25],[1,0.5],[1,0.75],[1,1],[0.75,1],[0.5,1],[0.25,1],[0,1],[0,0.75],[0,0.5],[0,0.25]];outlineConnect=0;gradientColor=none;html=1;whiteSpace=wrap;fontSize=12;fontStyle=0;container=1;pointerEvents=0;collapsible=0;recursiveResize=0;shape=mxgraph.aws4.groupCenter;grIcon=mxgraph.aws4.group_auto_scaling_group;grStroke=1;strokeColor=#D86613;fillColor=none;verticalAlign=top;align=center;fontColor=#D86613;dashed=1;spacingTop=25;" vertex="1" parent="KegEBsuILMjrFgMIoxQn-16">
          <mxGeometry x="10" y="140" width="250" height="180" as="geometry" />
        </mxCell>
        <mxCell id="KegEBsuILMjrFgMIoxQn-33" value="Security group (BastionHost-SG)" style="fillColor=none;strokeColor=#DD3522;verticalAlign=top;fontStyle=0;fontColor=#DD3522;whiteSpace=wrap;html=1;labelPosition=center;verticalLabelPosition=middle;align=left;" vertex="1" parent="KegEBsuILMjrFgMIoxQn-29">
          <mxGeometry x="10" y="64" width="230" height="80" as="geometry" />
        </mxCell>
        <mxCell id="KegEBsuILMjrFgMIoxQn-18" value="EC2 Instance&lt;div&gt;(Bastion Host)&lt;/div&gt;" style="sketch=0;outlineConnect=0;fontColor=#232F3E;gradientColor=none;fillColor=#ED7100;strokeColor=none;dashed=0;verticalLabelPosition=middle;verticalAlign=middle;align=left;html=1;fontSize=12;fontStyle=0;aspect=fixed;pointerEvents=1;shape=mxgraph.aws4.instance2;labelPosition=right;spacingRight=0;spacingLeft=5;spacingBottom=0;" vertex="1" parent="KegEBsuILMjrFgMIoxQn-29">
          <mxGeometry x="101" y="90" width="48" height="48" as="geometry" />
        </mxCell>
        <mxCell id="KegEBsuILMjrFgMIoxQn-19" value="Private subnet" style="points=[[0,0],[0.25,0],[0.5,0],[0.75,0],[1,0],[1,0.25],[1,0.5],[1,0.75],[1,1],[0.75,1],[0.5,1],[0.25,1],[0,1],[0,0.75],[0,0.5],[0,0.25]];outlineConnect=0;gradientColor=none;html=1;whiteSpace=wrap;fontSize=12;fontStyle=0;container=1;pointerEvents=0;collapsible=0;recursiveResize=0;shape=mxgraph.aws4.group;grIcon=mxgraph.aws4.group_security_group;grStroke=0;strokeColor=#00A4A6;fillColor=#E6F6F7;verticalAlign=top;align=left;spacingLeft=30;fontColor=#147EBA;dashed=0;" vertex="1" parent="KegEBsuILMjrFgMIoxQn-15">
          <mxGeometry x="10" y="390" width="270" height="150" as="geometry" />
        </mxCell>
        <mxCell id="KegEBsuILMjrFgMIoxQn-20" value="Security group (LinuxInstance-SG)" style="fillColor=none;strokeColor=#DD3522;verticalAlign=bottom;fontStyle=0;fontColor=#DD3522;whiteSpace=wrap;html=1;" vertex="1" parent="KegEBsuILMjrFgMIoxQn-19">
          <mxGeometry x="20" y="30" width="230" height="110" as="geometry" />
        </mxCell>
        <mxCell id="KegEBsuILMjrFgMIoxQn-21" value="" style="sketch=0;outlineConnect=0;fontColor=#232F3E;gradientColor=none;fillColor=#ED7100;strokeColor=none;dashed=0;verticalLabelPosition=bottom;verticalAlign=top;align=center;html=1;fontSize=12;fontStyle=0;aspect=fixed;pointerEvents=1;shape=mxgraph.aws4.instance2;" vertex="1" parent="KegEBsuILMjrFgMIoxQn-19">
          <mxGeometry x="31" y="61" width="48" height="48" as="geometry" />
        </mxCell>
        <mxCell id="KegEBsuILMjrFgMIoxQn-22" value="" style="sketch=0;outlineConnect=0;fontColor=#232F3E;gradientColor=none;fillColor=#ED7100;strokeColor=none;dashed=0;verticalLabelPosition=bottom;verticalAlign=top;align=center;html=1;fontSize=12;fontStyle=0;aspect=fixed;pointerEvents=1;shape=mxgraph.aws4.instance2;" vertex="1" parent="KegEBsuILMjrFgMIoxQn-19">
          <mxGeometry x="111" y="61" width="48" height="48" as="geometry" />
        </mxCell>
        <mxCell id="KegEBsuILMjrFgMIoxQn-23" value="" style="sketch=0;outlineConnect=0;fontColor=#232F3E;gradientColor=none;fillColor=#ED7100;strokeColor=none;dashed=0;verticalLabelPosition=bottom;verticalAlign=top;align=center;html=1;fontSize=12;fontStyle=0;aspect=fixed;pointerEvents=1;shape=mxgraph.aws4.instance2;" vertex="1" parent="KegEBsuILMjrFgMIoxQn-19">
          <mxGeometry x="191" y="61" width="48" height="48" as="geometry" />
        </mxCell>
        <mxCell id="KegEBsuILMjrFgMIoxQn-24" style="edgeStyle=orthogonalEdgeStyle;rounded=0;orthogonalLoop=1;jettySize=auto;html=1;" edge="1" parent="KegEBsuILMjrFgMIoxQn-15" source="KegEBsuILMjrFgMIoxQn-18" target="KegEBsuILMjrFgMIoxQn-22">
          <mxGeometry relative="1" as="geometry" />
        </mxCell>
        <mxCell id="KegEBsuILMjrFgMIoxQn-25" style="edgeStyle=orthogonalEdgeStyle;rounded=0;orthogonalLoop=1;jettySize=auto;html=1;" edge="1" parent="KegEBsuILMjrFgMIoxQn-15" source="KegEBsuILMjrFgMIoxQn-18" target="KegEBsuILMjrFgMIoxQn-23">
          <mxGeometry relative="1" as="geometry">
            <Array as="points">
              <mxPoint x="145" y="430" />
              <mxPoint x="225" y="430" />
            </Array>
          </mxGeometry>
        </mxCell>
        <mxCell id="KegEBsuILMjrFgMIoxQn-26" style="edgeStyle=orthogonalEdgeStyle;rounded=0;orthogonalLoop=1;jettySize=auto;html=1;" edge="1" parent="KegEBsuILMjrFgMIoxQn-15" source="KegEBsuILMjrFgMIoxQn-18" target="KegEBsuILMjrFgMIoxQn-21">
          <mxGeometry relative="1" as="geometry">
            <Array as="points">
              <mxPoint x="145" y="430" />
              <mxPoint x="65" y="430" />
            </Array>
          </mxGeometry>
        </mxCell>
        <mxCell id="KegEBsuILMjrFgMIoxQn-31" style="edgeStyle=orthogonalEdgeStyle;rounded=0;orthogonalLoop=1;jettySize=auto;html=1;" edge="1" parent="1" source="KegEBsuILMjrFgMIoxQn-28" target="KegEBsuILMjrFgMIoxQn-30">
          <mxGeometry relative="1" as="geometry" />
        </mxCell>
        <mxCell id="KegEBsuILMjrFgMIoxQn-32" value="SSH / 22" style="edgeLabel;html=1;align=center;verticalAlign=middle;resizable=0;points=[];" vertex="1" connectable="0" parent="KegEBsuILMjrFgMIoxQn-31">
          <mxGeometry x="-0.3443" y="1" relative="1" as="geometry">
            <mxPoint as="offset" />
          </mxGeometry>
        </mxCell>
        <mxCell id="KegEBsuILMjrFgMIoxQn-28" value="Users" style="sketch=0;outlineConnect=0;fontColor=#232F3E;gradientColor=none;fillColor=#232F3D;strokeColor=none;dashed=0;verticalLabelPosition=bottom;verticalAlign=top;align=center;html=1;fontSize=12;fontStyle=0;aspect=fixed;pointerEvents=1;shape=mxgraph.aws4.users;" vertex="1" parent="1">
          <mxGeometry x="566" y="190" width="78" height="78" as="geometry" />
        </mxCell>
      </root>
    </mxGraphModel>
  </diagram>
</mxfile>
